<svg width="326" height="206" viewBox="0 0 326 206" fill="none" xmlns="http://www.w3.org/2000/svg">
      <path d="M35.7443 171.44C33.5349 172.292 31.5251 172.861 29.7149 173.147C27.9048 173.434 26.1079 173.132 24.3243 172.242C22.6004 171.329 21.1859 169.44 20.0807 166.573C18.538 162.572 17.66 156.738 17.4468 149.069C17.2932 141.377 17.8746 133.368 19.1909 125.04C16.2743 126.371 14.0882 127.728 12.6328 129.112C11.1774 130.497 10.4688 132.039 10.507 133.739C10.7458 133.647 11.0998 133.853 11.5689 134.358C12.0977 134.841 12.4888 135.41 12.7421 136.067C13.1565 137.142 13.0127 138.192 12.3105 139.217C11.5853 140.183 10.5061 140.942 9.073 141.494C7.40099 142.139 5.88472 142.209 4.52419 141.705C3.16366 141.201 2.16105 140.112 1.51634 138.44C0.733489 136.41 0.796 134.26 1.70388 131.989C2.67147 129.695 4.37436 127.53 6.81255 125.492C9.22771 123.395 12.1372 121.69 15.5409 120.377C16.7949 119.894 18.382 119.385 20.3023 118.85C22.2056 109.199 24.9302 100.878 28.4762 93.8858C32.0589 86.8112 36.3284 82.3183 41.2847 80.4072C44.151 79.302 46.6709 78.8105 48.8444 78.9328L60.2014 150.28L47.303 155.254L41.6628 120.08C39.062 119.916 36.7439 119.953 34.7085 120.189C32.6731 120.425 30.5759 120.856 28.4168 121.483C27.8452 130.14 27.9398 138.747 28.7006 147.302C29.4981 155.774 30.7833 162.309 32.5562 166.907C33.4312 169.177 34.4939 170.687 35.7443 171.44ZM36.7503 89.4608C34.7121 91.8243 33.015 95.4282 31.659 100.272C30.3397 105.034 29.3909 110.578 28.8127 116.906C33.4345 116.084 37.4801 115.725 40.9493 115.828L36.7503 89.4608ZM126.779 125.226C123.136 126.631 120.08 126.711 117.612 125.468C115.18 124.142 113.412 122.046 112.306 119.18C111.823 117.926 111.431 116.465 111.131 114.797C110.808 113.07 110.508 111.402 110.231 109.794C110.013 108.163 109.884 107.116 109.842 106.652C109.514 104.378 109.167 102.145 108.803 99.9532C108.438 97.7618 108.014 96.039 107.53 94.785C106.356 91.7396 104.694 90.6313 102.544 91.4602C100.991 92.0588 99.9173 93.3647 99.3217 95.3778C98.703 97.3312 98.5074 99.6701 98.7349 102.395L103.731 133.496L90.8322 138.469L85.4554 105.046C85.3583 104.26 85.16 103.479 84.8607 102.703C83.8476 100.075 82.4453 99.1071 80.6539 99.7978C78.9819 100.443 77.8182 101.783 77.1628 103.819C76.5442 105.772 76.3601 108.141 76.6106 110.926L81.6063 142.027L68.7079 147L60.9337 98.5532L73.832 93.5797L74.6427 98.6174C76.3757 94.0394 79.3621 90.933 83.6019 89.2982C88.8567 87.272 92.9221 88.6539 95.798 93.444C97.1252 87.1019 100.297 82.9638 105.313 81.0296C108.358 79.8554 111.099 79.7588 113.535 80.7401C115.971 81.7214 117.846 83.9139 119.158 87.3176C119.826 89.0493 120.365 91.0706 120.776 93.3815C121.164 95.6327 121.557 98.4307 121.955 101.775C122.191 103.811 122.445 105.805 122.718 107.757C123.027 109.627 123.378 111.07 123.769 112.085C124.23 113.279 124.855 114.101 125.646 114.551C126.437 115.001 127.489 114.972 128.803 114.466C130.594 113.775 131.786 112.595 132.377 110.927C132.945 109.199 133.249 106.784 133.288 103.682L137.05 102.231C137.373 109.652 136.509 115.061 134.458 118.458C132.444 121.773 129.884 124.029 126.779 125.226ZM150.421 116.11C147.018 117.422 143.732 117.352 140.565 115.898C137.398 114.444 134.859 111.239 132.948 106.282C131.244 101.863 130.325 96.9017 130.192 91.3971C130.095 85.8097 131.134 80.6763 133.308 75.9968C135.519 71.2346 139.043 67.921 143.88 66.0559C146.328 65.1119 148.31 64.8276 149.827 65.2031C151.344 65.5786 152.367 66.4531 152.896 67.8266L153.138 68.4536L152.293 63.3263L165.191 58.3529L170.485 91.2941C170.591 92.2819 170.84 93.2834 171.232 94.2985C171.692 95.4928 172.295 96.2551 173.04 96.5853C173.821 96.8328 174.868 96.7032 176.182 96.1967C177.018 95.8743 177.629 95.5016 178.015 95.0786C177.99 98.9291 177.646 101.771 176.981 103.605C176.293 105.38 174.815 106.704 172.546 107.579C170.097 108.523 167.821 108.578 165.716 107.743C163.647 106.826 161.927 105.123 160.556 102.634C159.054 109.592 155.676 114.084 150.421 116.11ZM189.718 54.4517L184.702 56.3859C183.03 57.0306 181.811 57.6037 181.044 58.1052C180.336 58.5836 180.098 59.1214 180.328 59.7186C180.374 59.838 180.581 59.9297 180.949 59.9937C181.353 59.975 181.728 60.4135 182.073 61.3092C182.672 62.8618 182.655 64.2403 182.022 65.4447C181.366 66.5894 180.381 67.415 179.067 67.9216C177.932 68.3591 176.82 68.4106 175.731 68.0761C174.679 67.6588 173.91 66.8232 173.427 65.5692C172.943 64.3152 172.843 62.8104 173.127 61.0549C173.47 59.2764 174.234 57.6101 175.418 56.056C176.662 54.4789 178.299 53.2989 180.329 52.516L203.349 43.6398L196.013 89.9905C196.372 89.8524 197.051 89.6588 198.053 89.4098C200.175 88.8658 201.834 88.3636 203.028 87.9031C205.596 86.913 206.769 85.7748 206.547 84.4884C205.987 84.6359 205.5 84.6179 205.086 84.4345C204.649 84.1913 204.327 83.801 204.12 83.2636C203.752 82.3082 203.866 81.2696 204.462 80.1479C205.035 78.9665 206.098 78.0765 207.651 77.4779C208.965 76.9713 210.1 76.9796 211.056 77.5026C212.012 78.0256 212.743 78.9439 213.25 80.2577C213.802 81.6908 213.919 83.3265 213.599 85.1648C213.279 87.003 212.478 88.7521 211.198 90.4119C209.894 92.0121 208.167 93.2266 206.018 94.0555L182.281 103.208L189.718 54.4517ZM152.893 105.176C154.386 104.601 155.585 103.35 156.488 101.424C157.428 99.4152 157.695 97.083 157.289 94.4275L153.783 72.5264C153.483 71.7501 152.897 71.1188 152.023 70.6325C151.127 70.0865 150.052 70.0552 148.798 70.5387C146.409 71.4597 144.8 73.6919 143.972 77.2353C143.12 80.719 142.917 84.6387 143.361 88.9943C143.783 93.2902 144.57 96.931 145.721 99.9167C146.872 102.902 148.027 104.652 149.185 105.166C150.403 105.656 151.639 105.66 152.893 105.176ZM216.465 33.0265C214.494 33.7863 212.557 33.7443 210.654 32.9005C208.751 32.0566 207.42 30.6494 206.66 28.6788C205.9 26.7082 205.942 24.7714 206.786 22.8684C207.607 20.9057 209.003 19.5444 210.973 18.7846C212.944 18.0247 214.892 18.0966 216.818 19.0002C218.781 19.821 220.142 21.2167 220.902 23.1873C221.662 25.1579 221.59 27.1062 220.687 29.0322C219.843 30.9353 218.435 32.2667 216.465 33.0265ZM229.715 85.5354C226.849 86.6406 224.175 86.6429 221.692 85.5422C219.27 84.4185 217.368 82.0652 215.986 78.4823C215.411 76.9894 214.901 74.9566 214.458 72.3838L209.462 41.2826L222.361 36.3092L227.654 69.2504C227.761 70.2382 228.01 71.2397 228.401 72.2549C228.862 73.4491 229.464 74.2114 230.209 74.5416C230.99 74.7891 232.038 74.6595 233.352 74.153C235.083 73.4852 236.419 72.147 237.36 70.1382C238.277 68.0697 238.615 65.7444 238.374 63.1622L242.136 61.7117C242.413 69.0128 241.269 74.4955 238.703 78.1598C236.115 81.7644 233.119 84.223 229.715 85.5354ZM277.063 67.2787C273.42 68.6832 270.365 68.7639 267.896 67.5208C265.464 66.1949 263.696 64.0988 262.591 61.2325C262.107 59.9785 261.715 58.5177 261.415 56.8499C261.092 55.1225 260.792 53.4548 260.515 51.8468C260.298 50.2158 260.168 49.1683 260.126 48.7042C259.798 46.43 259.452 44.1972 259.087 42.0057C258.722 39.8142 258.298 38.0915 257.814 36.8375C256.64 33.792 254.978 32.6837 252.828 33.5126C251.276 34.1113 250.202 35.4172 249.606 37.4302C248.987 39.3836 248.792 41.7226 249.019 44.4472L254.015 75.5484L241.117 80.5218L233.342 32.0748L246.241 27.1014L247.051 32.139C248.748 27.6438 251.596 24.6248 255.597 23.0821C258.643 21.9078 261.383 21.8113 263.82 22.7926C266.256 23.7738 268.13 25.9663 269.442 29.37C270.11 31.1018 270.649 33.1231 271.06 35.434C271.448 37.6852 271.841 40.4832 272.239 43.8279C272.475 45.8633 272.73 47.8573 273.002 49.8099C273.312 51.6798 273.662 53.1223 274.054 54.1374C274.514 55.3317 275.14 56.1537 275.931 56.6033C276.721 57.053 277.773 57.0245 279.087 56.518C280.879 55.8272 282.07 54.6476 282.661 52.9791C283.23 51.251 283.533 48.8361 283.572 45.7345L287.334 44.2839C287.657 51.7044 286.793 57.1134 284.742 60.5108C282.728 63.8254 280.168 66.0814 277.063 67.2787ZM314.143 78.0863C311.336 79.1684 308.501 79.1984 305.638 78.1762C302.857 77.1906 300.925 75.2945 299.843 72.4879C298.83 69.8605 298.658 67.4575 299.327 65.2789C299.996 63.1004 301.191 61.1304 302.913 59.3691C304.635 57.6078 307.05 55.5105 310.158 53.0771L309.514 49.0042C307.698 53.5456 304.76 56.5991 300.7 58.1648C297.296 59.4772 294.01 59.4065 290.843 57.9526C287.676 56.4987 285.137 53.2935 283.226 48.3372C281.522 43.9183 280.603 38.9566 280.47 33.452C280.373 27.8646 281.412 22.7312 283.586 18.0517C285.797 13.2895 289.321 9.97586 294.158 8.11082C296.606 7.16679 298.588 6.88253 300.105 7.25803C301.622 7.63353 302.645 8.508 303.174 9.88144L303.243 10.0606L302.481 5.41575L315.469 0.40778L324.573 56.5732C325.59 62.7663 325.001 67.5547 322.807 70.9384C320.674 74.2991 317.785 76.6817 314.143 78.0863ZM303.172 47.2314C304.545 46.7018 305.7 45.6049 306.636 43.9408C307.608 42.1939 307.979 40.1304 307.747 37.7504L303.957 14.3126C302.673 12.4068 301.046 11.8338 299.076 12.5936C296.687 13.5146 295.079 15.7468 294.25 19.2902C293.398 22.7739 293.195 26.6935 293.639 31.0492C294.061 35.3451 294.848 38.9859 295.999 41.9716C297.15 44.9574 298.305 46.7071 299.463 47.2207C300.681 47.7113 301.918 47.7149 303.172 47.2314ZM309.009 70.9087C310.084 70.4943 310.88 69.5355 311.398 68.0326C311.939 66.5893 312.006 64.5399 311.6 61.8844L310.637 56.1852C307.886 58.4804 305.921 60.6784 304.742 62.7793C303.563 64.8802 303.411 67.0652 304.286 69.3343C304.562 70.0509 305.174 70.5696 306.121 70.8905C307.091 71.271 308.053 71.2771 309.009 70.9087Z" fill="black"/>
      <path d="M180.284 204.274C178.06 205.085 176.04 205.617 174.224 205.869C172.409 206.122 170.618 205.787 168.851 204.865C167.145 203.92 165.765 202.004 164.714 199.118C163.245 195.089 162.475 189.239 162.404 181.568C162.393 173.875 163.122 165.877 164.593 157.576C161.652 158.852 159.441 160.169 157.96 161.526C156.479 162.883 155.742 164.412 155.749 166.112C155.99 166.025 156.34 166.238 156.799 166.751C157.319 167.243 157.7 167.82 157.941 168.481C158.335 169.563 158.172 170.611 157.451 171.623C156.708 172.575 155.615 173.314 154.172 173.84C152.488 174.453 150.971 174.495 149.62 173.966C148.269 173.437 147.287 172.33 146.673 170.646C145.928 168.602 146.03 166.453 146.98 164.2C147.99 161.924 149.732 159.79 152.208 157.798C154.662 155.746 157.602 154.095 161.029 152.846C162.292 152.386 163.888 151.906 165.818 151.407C167.9 141.793 170.778 133.524 174.453 126.598C178.166 119.591 182.518 115.178 187.509 113.359C190.395 112.307 192.923 111.863 195.094 112.025L205.129 183.57L192.141 188.304L187.152 153.032C184.555 152.82 182.237 152.814 180.197 153.012C178.158 153.211 176.053 153.603 173.883 154.19C173.151 162.835 173.086 171.442 173.689 180.009C174.329 188.495 175.493 195.053 177.181 199.683C178.014 201.968 179.048 203.498 180.284 204.274ZM182.807 122.327C180.726 124.653 178.962 128.225 177.517 133.043C176.11 137.779 175.058 143.305 174.363 149.621C178.999 148.885 183.051 148.6 186.518 148.767L182.807 122.327ZM206.324 128.266L219.312 123.532L220.334 130.822C222.398 127.141 225.445 124.566 229.474 123.098C232.841 121.87 235.922 122.007 238.717 123.509C241.513 125.011 243.831 128.287 245.672 133.338C247.403 138.088 248.465 143.151 248.857 148.525C249.227 153.84 248.383 158.814 246.325 163.446C244.245 168.019 240.5 171.292 235.088 173.264C231.24 174.667 228.29 174.516 226.238 172.811L229.569 196.529L217.133 204.74L206.324 128.266ZM229.432 166.436C232.318 165.384 234.2 163.166 235.078 159.78C236.016 156.373 236.226 152.652 235.709 148.617C235.231 144.5 234.4 140.818 233.216 137.571C231.397 132.58 228.984 130.633 225.978 131.729C224.895 132.123 223.925 132.919 223.068 134.117C222.27 135.294 221.703 136.727 221.365 138.416L225.248 165.611C226.233 166.819 227.628 167.094 229.432 166.436ZM248.515 112.888L261.503 108.154L262.525 115.445C264.59 111.763 267.636 109.188 271.665 107.72C275.032 106.493 278.113 106.63 280.909 108.131C283.704 109.633 286.022 112.909 287.863 117.96C289.594 122.711 290.656 127.773 291.048 133.148C291.418 138.462 290.575 143.436 288.517 148.069C286.437 152.641 282.691 155.914 277.279 157.886C273.431 159.289 270.481 159.138 268.429 157.434L271.76 181.151L259.324 189.362L248.515 112.888ZM271.623 151.059C274.509 150.007 276.391 147.788 277.269 144.403C278.207 140.995 278.418 137.274 277.901 133.24C277.422 129.123 276.591 125.441 275.407 122.193C273.588 117.203 271.176 115.255 268.169 116.351C267.087 116.745 266.117 117.542 265.259 118.74C264.462 119.916 263.894 121.349 263.556 123.039L267.439 150.233C268.425 151.441 269.819 151.716 271.623 151.059ZM311.984 145.237C309.098 146.289 306.465 146.636 304.087 146.277C301.686 145.857 299.687 144.951 298.089 143.558C296.469 142.105 295.309 140.416 294.608 138.492C293.884 136.508 293.741 134.619 294.177 132.825C294.531 130.993 295.249 129.505 296.331 128.361C297.142 123.298 297.641 118.313 297.829 113.408C297.995 108.443 297.95 103.181 297.694 97.6199L310.386 90.9507C313.492 98.5378 317.038 106.68 321.025 115.376C322.641 118.874 323.744 121.435 324.336 123.059C325.673 126.727 325.837 130.073 324.827 133.097C323.818 136.122 322.117 138.649 319.723 140.68C317.39 142.688 314.81 144.207 311.984 145.237ZM306.501 139.164C308.726 138.353 310.349 137.012 311.37 135.141C312.391 133.271 312.364 130.862 311.291 127.916C310.633 126.112 309.532 123.652 307.988 120.536C304.888 113.901 302.821 109.443 301.786 107.164C302.074 112.44 301.71 119.01 300.693 126.874C302.339 127.091 303.414 127.891 303.918 129.274C304.335 130.417 304.316 131.582 303.863 132.768C303.47 133.933 302.703 134.724 301.56 135.14C300.298 135.601 299.343 135.506 298.698 134.856C299.487 137.02 300.488 138.46 301.703 139.176C302.977 139.869 304.577 139.865 306.501 139.164Z" fill="black"/>
</svg>
